<?xml version="1.0" encoding="UTF-8"?>
<svg id="Layer_1" xmlns="http://www.w3.org/2000/svg" version="1.1" viewBox="0 0 612 792">
  <!-- Generator: Adobe Illustrator 29.8.1, SVG Export Plug-In . SVG Version: 2.1.1 Build 2)  -->
  <defs>
    <style>
      .st0 {
        fill: #fff;
      }

      .st1 {
        fill: #131f46;
      }
    </style>
  </defs>
  <circle class="st1" cx="306" cy="397.22" r="176.75"/>
  <polygon class="st0" points="192.95 288.97 233.31 288.97 249.21 445.54 270.62 288.97 306 288.97 277.35 507.91 221.69 507.91 192.95 288.97"/>
  <path class="st0" d="M382.07,351.11h36.77c.17-2.59.31-6.46,0-11.12-.7-10.45-1.94-29.16-15.35-42.39-13.03-12.87-30.4-13.49-35.87-13.69-5.93-.21-21.55-.89-35.4,9.91-12.06,9.4-15.76,22.02-17.46,27.85-.97,3.3-4.88,17.71,0,34.92,3.66,12.9,10.4,20.82,23.6,36.34,4,4.7,4.97,5.42,23.6,25.01,3.94,4.15,11.59,8.22,16.52,17.46,2.09,3.91,3.18,7.43,3.78,9.91,1.26,5.28,4.23,17.68-2.83,25.01-5.14,5.34-12.57,5.23-13.73,5.19-1.88-.06-9.27-.29-13.17-6.14-2.15-3.22-2.24-6.65-2.17-8.25l.25-19.28h-37.06c-1,5.91-1.85,14.98.02,25.7,1.51,8.67,3.54,20.31,12.92,29.77,8.97,9.04,19.78,11.17,27.24,12.64,5.28,1.04,20.68,3.85,37.35-3.65,4.94-2.22,13.91-6.39,20.5-16.01,4.91-7.16,6.17-13.95,7.44-20.78.96-5.14,2.43-15.97,0-29.49-3.83-21.32-15.01-36.12-20.91-42.81-2.34-2.66-8.67-8.2-21.33-19.27-13.48-11.79-17.89-14.98-21.33-21.92-1.9-3.82-7.82-14.85-3.36-25.08.62-1.42,2.73-5.79,7.51-8.69.68-.41,9.9-5.84,16.79-.99,3.37,2.37,4.53,6.04,4.94,7.7l.74,22.14Z"/>
</svg>